<?xml version="1.0" encoding="UTF-8"?>
<svg id="_레이어_2" data-name="레이어 2" xmlns="http://www.w3.org/2000/svg" viewBox="0 0 1874 1024">
  <defs>
    <style>
      .cls-1 {
        opacity: .3;
      }

      .cls-1, .cls-2 {
        fill: #d16221;
      }
    </style>
  </defs>
  <path class="cls-1" d="m682,375c-5.94-12.87-14.82-19.97-26-16-45,16,41,147,41,147,0,0-21.7-77.46-15-131Z"/>
  <path class="cls-2" d="m721,476s16-30,23-76-23-100-49-53c-4.56,8.25-7.3,18.57-8.73,29.96-6.7,53.54,15.73,131.04,15.73,131.04,0,0,92,48,99-12s-80-20-80-20Z"/>
  <path class="cls-2" d="m917,367s-49.85-12.67-68,38.88v-55.42c0-40.42-30.06-49.1-42.1-50.96-1.57-.33-3.2-.5-4.87-.5-.02,0-.04,0-.04,0-13.25,0-24,10.75-24,24s10.75,24,24,24c10.37,0,13.29,6.33,14,11.27v191.27c0,8.5,6.96,15.46,15.46,15.46h2.08c8.5,0,15.46-6.96,15.46-15.46v-128.55c14.25-.44,62.05-5.56,68-53.99Z"/>
  <path class="cls-2" d="m965.5,502.68v-85.68c0-8.01-6.49-14.5-14.5-14.5s-14.5,6.49-14.5,14.5v11h-35v-11c0-8.01-6.49-14.5-14.5-14.5s-14.5,6.49-14.5,14.5v84.68c-.14,3.77-.03,20.61,11.98,33.39,5.76,6.13,16.42,13.44,34.52,13.44s29.06-7.33,34.83-13.47c11.67-12.45,11.81-28.62,11.67-32.35Zm-32.93,12.62c-2.69,2.79-7.25,4.2-13.57,4.2s-10.61-1.41-13.29-4.19c-3.65-3.79-4.29-10.19-4.23-12.48.03-.36.02-.44.02-.83v-46h35v47c0,.41,0,.48.02.83,0,.82-.1,7.48-3.95,11.47Z"/>
  <path class="cls-2" d="m1013,385.66c0-8.88-6.94-16.07-15.5-16.07s-15.5,7.2-15.5,16.07v178.34h.03c0,.17-.03.34-.03.52,0,8.88,6.94,16.07,15.5,16.07s15.5-7.2,15.5-16.07c0-.18-.02-.34-.03-.52h.03v-178.34Z"/>
  <path class="cls-2" d="m1088.01,463.5c-1.35,0-2.72-.19-4.08-.59l-58-17c-4.69-1.37-8.37-5.01-9.79-9.68s-.4-9.75,2.72-13.5l32.13-38.64h-39.35c-8.01,0-14.5-6.49-14.5-14.5s6.49-14.5,14.5-14.5h70.26c5.62,0,10.74,3.25,13.13,8.34,2.39,5.09,1.62,11.1-1.98,15.43l-37.78,45.43,36.81,10.79c7.69,2.25,12.09,10.31,9.84,17.99-1.85,6.32-7.64,10.43-13.91,10.43Z"/>
  <path class="cls-2" d="m1143,405.97c52.02-1.12,53-45.97,53-45.97-36.76-6.81-48.96,16.97-53,32.85v-48.74c0-8.25-6.75-15-15-15s-15,6.75-15,15v119.89c0,2.94.87,5.68,2.34,8h-82.4c-3.79,9.33-5.68,18.79-5.68,28.38,0,5.91.9,11.04,2.7,15.37,6.37,14.59,26.49,22.6,60.37,24.04,2.4.13,5.88.2,10.46.2,15.94,0,30.68-1.32,44.24-3.94,13.55-2.63,24.21-6.24,31.98-10.84v-47.11c0-4.07-3.19-6.11-9.56-6.11h-26.78c1.48-2.32,2.34-5.06,2.34-8v-58.03Zm-2.76,102.22c-4.18,1.58-9.52,3.02-15.99,3.81-6.48.79-13.3.92-20.47.92-7.97,0-14.84-.46-20.63-1.38-7.17-1.18-12.3-3.15-15.39-5.91,0,0-5.31-3.63-4.04-7.63h76.51v10.19Z"/>
</svg>