<svg width="286" height="230" viewBox="0 0 286 230" fill="none" xmlns="http://www.w3.org/2000/svg">
<path d="M87.821 111.412C88.0946 73.5274 125.39 46.0409 161.382 57.5829C166.127 59.084 170.659 61.2258 174.824 63.9228C170.592 61.3325 166.02 59.3158 161.272 57.9459C126.147 47.6031 90.2468 74.6379 90.8608 111.418C90.8213 113.434 87.8727 113.48 87.821 111.409V111.412Z" fill="#FDEB87"/>
<path d="M163.062 95.8668C161.916 95.0186 160.302 95.2596 159.454 96.4099C159.305 96.6112 155.812 101.404 153.879 108.968C152.836 113.053 152.149 118.438 153.067 124.546C148.34 120.586 143.398 118.38 139.379 117.154C131.934 114.884 126.037 115.393 125.791 115.418C124.371 115.549 123.329 116.806 123.456 118.231C123.584 119.655 124.836 120.708 126.256 120.583C126.308 120.58 131.557 120.15 138.072 122.176C146.671 124.848 153.35 130.34 157.922 138.495C157.989 138.617 158.068 138.727 158.15 138.834C155.812 141.388 155.259 145.256 157.043 148.445C157.232 148.78 157.439 149.094 157.663 149.39C158.876 151.493 170.522 171.644 186.673 199.277C203.747 228.494 208.228 222.642 208.228 222.642L207.805 221.888C208.906 221.428 213.128 217.87 198.874 191.333C185.125 165.738 174.696 146.526 172.021 141.598L171.862 141.122L171.786 141.165C171.501 140.637 171.349 140.363 171.349 140.363C169.564 137.177 165.983 135.646 162.594 136.323C162.548 136.198 162.494 136.073 162.424 135.951C157.852 127.795 156.642 119.216 158.831 110.451C160.487 103.812 163.576 99.531 163.606 99.4883C164.448 98.335 164.202 96.7119 163.056 95.8637L163.062 95.8668Z" fill="#FDEB87"/>
<path d="M137.689 193.862C124.73 205.367 119.173 219.252 126.764 235.569C127.396 236.896 128.171 238.544 128.928 239.801C130.387 242.315 132.339 244.691 134.527 246.537C141.464 252.423 151.636 253.344 159.94 250.034C166.105 247.636 171.258 242.751 173.264 236.408C176.708 223.969 176.921 210.67 176.927 197.706C176.866 189.273 176.507 180.73 176.161 171.959C178.401 175.757 180.228 179.751 181.927 183.8C188.992 201.297 193.479 221.351 190.588 240.393C186.217 265.267 158.031 278.164 135.424 269.099C125.177 265.118 116.903 256.316 113.328 245.958C112.774 244.414 112.1 242.272 111.695 240.682C108.929 230.51 109.637 218.508 115.486 209.519C120.645 201.486 128.6 195.939 137.683 193.859L137.689 193.862Z" fill="#FDEB87"/>
<path d="M124.198 129.269C100.798 118.289 69.2962 113.117 43.4942 114.649C26.2767 115.723 2.42929 121.269 0.137263 142.062C-0.701728 149.558 2.35329 156.749 7.98912 161.515C10.7341 163.916 14.1174 165.848 17.0691 167.26C22.0513 169.643 26.988 171.388 31.9794 173.411C44.9655 178.411 57.1491 185.276 65.387 196.632C65.46 196.733 65.6241 196.946 65.691 197.044C66.9617 198.969 68.4573 200.702 70.272 202.176C87.906 216.192 114.441 195.165 127.132 182.536C128.375 181.292 129.594 180.019 130.755 178.701C121.636 183.702 112.456 188.239 102.737 191.528C97.0711 193.325 90.8151 195.07 84.9361 194.133C82.1395 193.67 80.0572 192.239 78.9963 189.728C78.9446 189.624 78.899 189.502 78.8504 189.392L78.5586 188.782C71.4819 174.204 60.8121 164.954 48.2455 157.457L47.8351 157.21C47.8351 157.21 28.663 144.722 57.0184 138.987C66.0436 138.883 75.1996 139.414 84.1336 140.271C93.9066 141.235 103.579 142.614 113.091 144.881C135.953 150.708 156.898 162.327 177.456 173.963C163.649 155.587 144.909 139.453 124.198 129.272V129.269Z" fill="#FDEB87"/>
<path d="M220.2 147.267C236.724 142.123 251.431 144.564 261.389 159.544C262.192 160.777 263.192 162.296 263.87 163.596C265.256 166.153 266.262 169.06 266.7 171.898C268.113 180.904 263.614 190.109 256.486 195.512C251.245 199.555 244.409 201.443 237.964 199.869C225.583 196.367 214.15 189.645 203.107 182.921C195.954 178.491 188.868 173.75 181.579 168.898C183.652 172.792 186.102 176.431 188.667 179.992C199.903 195.134 214.649 209.394 232.365 216.799C255.817 225.961 281.431 208.479 285.446 184.379C287.377 173.521 284.173 161.854 277.208 153.412C276.181 152.136 274.71 150.443 273.564 149.274C266.335 141.623 255.747 135.997 245.056 136.35C235.535 136.607 226.683 140.549 220.196 147.264L220.2 147.267Z" fill="#FDEB87"/>
<path d="M172.195 102.164C174.988 76.3892 186.941 46.6786 201.635 25.3399C211.487 11.1284 228.589 -6.44844 247.488 2.37505C254.309 5.54503 258.845 11.9003 259.976 19.2105C260.596 22.8106 260.483 26.719 260.155 29.9805C259.599 35.4906 258.523 40.6315 257.653 45.9646C255.173 59.7002 254.692 73.7165 260.085 86.6772C260.134 86.7931 260.231 87.0463 260.277 87.1531C261.255 89.2431 261.955 91.4276 262.271 93.7463C265.052 116.15 233.371 127.997 216.029 132.329C214.324 132.75 212.609 133.135 210.882 133.446C219.874 128.217 228.501 122.697 236.35 116.07C240.822 112.144 245.555 107.683 247.807 102.152C248.865 99.5097 248.725 96.9834 247.138 94.7684C247.075 94.6708 246.996 94.5701 246.929 94.4694L246.561 93.9019C237.818 80.264 235.481 66.3087 235.621 51.6395L235.627 51.1605C235.627 51.1605 234.943 28.2323 215.342 49.577C210.569 57.2655 206.268 65.3965 202.362 73.506C198.109 82.3905 194.264 91.4032 191.257 100.739C184.351 123.375 183.375 147.377 182.612 171.053C174.131 149.668 170.118 125.217 172.201 102.167L172.195 102.164Z" fill="#FDEB87"/>
</svg>
